<?xml version="1.0" encoding="utf-8"?>
<!-- Generator: Adobe Illustrator 24.1.1, SVG Export Plug-In . SVG Version: 6.00 Build 0)  -->
<svg version="1.1" id="Layer_1" xmlns="http://www.w3.org/2000/svg" xmlns:xlink="http://www.w3.org/1999/xlink" x="0px" y="0px"
	 viewBox="0 0 512 512" style="enable-background:new 0 0 512 512;" xml:space="preserve">
<style type="text/css">
	.st0{fill:#333333;}
</style>
<g id="XMLID_2_">
	<path id="XMLID_8_" class="st0" d="M26.5,0C11.9,0,0,11.9,0,26.5v34.1v390.8v34.1C0,500.1,11.9,512,26.5,512h34.1h390.8h34.1
		c15.4,0,26.5-11.9,26.5-26.5v-34.1V60.6V26.5C512,11.1,500.1,0,485.5,0h-34.1H60.6H26.5z M57.2,57.2h398.5v398.5H57.2V57.2z
		 M185.2,133.1c-23.9,0-42.7,18.8-42.7,42.7s18.8,42.7,42.7,42.7s42.7-18.8,42.7-42.7S208.2,133.1,185.2,133.1z M326.8,293.5
		c-23.9,0-42.7,18.8-42.7,42.7c0,23.9,18.8,42.7,42.7,42.7s42.7-18.8,42.7-42.7C369.5,313.2,350.7,293.5,326.8,293.5z"/>
</g>
</svg>
